Coordinates
nRows=11
nColumns=24

# SIMM Motion File Header:
name Coordinates
datacolumns 24
datarows 11
otherdata 1
range 0.34433000000000002000 0.35433000000000003000

Units are S.I. units (second, meters, Newtons, ...)
Angles are in degrees.

endheader
time	pelvis_tx	pelvis_ty	pelvis_tz	pelvis_tilt	pelvis_list	pelvis_rotation	hip_flexion_r	hip_adduction_r	hip_rotation_r	knee_angle_r	ankle_angle_r	subtalar_angle_r	mtp_angle_r	hip_flexion_l	hip_adduction_l	hip_rotation_l	knee_angle_l	ankle_angle_l	subtalar_angle_l	mtp_angle_l	lumbar_extension	lumbar_bending	lumbar_rotation
      0.34433000000000002000	      1.50519186946524350000	      0.74958413301285043000	     -0.16963820420200110000	     -2.43622343312347760000	     -1.19895353874071580000	     -1.48106759666984500000	     -4.98844511743837860000	      5.65816012635897450000	      4.87946028884660520000	     -4.78796355328281550000	      7.16833353795097050000	     -0.00000000000008244975	     -0.00000000000010032930	     31.40446626134390900000	     -2.87028377163726000000	     -7.34695641199149030000	    -33.28675532638500600000	     -2.90756757278518000000	     -0.00000000000000308750	     -0.00000000000000389448	     -6.16522918114117860000	     -0.17006493201715114000	      9.77455677509817460000
      0.34533000000000003000	      1.50636497577309060000	      0.74937601836662548000	     -0.16964949642798818000	     -2.42602464061522930000	     -1.18361549897538750000	     -1.52758316026608810000	     -5.17640094177408370000	      5.63397785876187740000	      4.92655322942292710000	     -4.65190922792357760000	      7.17675680358111910000	     -0.00000000000008251907	     -0.00000000000010157854	     31.43462147750595600000	     -2.88495996313864380000	     -7.51828417450228330000	    -32.87695102336075300000	     -2.90216496410723220000	     -0.00000000000000312425	     -0.00000000000000391494	     -6.17898640820193280000	     -0.18062372431179863000	      9.79215441314179810000
      0.34633000000000003000	      1.50753970294010250000	      0.74916332940205155000	     -0.16966047379689364000	     -2.41582979757911830000	     -1.16859642340034850000	     -1.57455571528092290000	     -5.36401547802385890000	      5.60976775268543810000	      4.97290798231911870000	     -4.51690154194189830000	      7.18587640019971550000	     -0.00000000000008256589	     -0.00000000000010290931	     31.46351738042101300000	     -2.90002816343831030000	     -7.69195650897837880000	    -32.46626057592926900000	     -2.89738874493258130000	     -0.00000000000000316224	     -0.00000000000000393784	     -6.19229003409108000000	     -0.19082576691880182000	      9.81001986403803450000
      0.34733000000000003000	      1.50871602641580790000	      0.74894611113948006000	     -0.16967109368806560000	     -2.40563797908364840000	     -1.15391170823990490000	     -1.62198104013959090000	     -5.55127265566482640000	      5.58554711530519650000	      5.01852602885085020000	     -4.38296778753278730000	      7.19569894346817480000	     -0.00000000000008263746	     -0.00000000000010421810	     31.49116748247877200000	     -2.91548238938312210000	     -7.86782846306919840000	    -32.05472875289661500000	     -2.89320498369679320000	     -0.00000000000000319849	     -0.00000000000000395816	     -6.20515511093078320000	     -0.20067210897258012000	      9.82817047452425820000
      0.34833000000000003000	      1.50989392045915480000	      0.74872440967346410000	     -0.16968131442693760000	     -2.39544850903560610000	     -1.13957697101186550000	     -1.66985435967873670000	     -5.73815608193334640000	      5.56133390152531250000	      5.06341000245172970000	     -4.25013520848519820000	      7.20623082316298010000	     -0.00000000000008271434	     -0.00000000000010555479	     31.51758603574560900000	     -2.93131699474710360000	     -8.04575232813586180000	    -31.64240139810062400000	     -2.88958083582239620000	     -0.00000000000000323676	     -0.00000000000000397566	     -6.21759699876603730000	     -0.21016338070603896000	      9.84662280609736840000
      0.34933000000000003000	      1.51107335820515650000	      0.74849827214740261000	     -0.16969109536268345000	     -2.38526096750760090000	     -1.12560801586414110000	     -1.71817031599122520000	     -5.92464903624737270000	      5.53714667912388500000	      5.10756359997440960000	     -4.11843100055163450000	      7.21747820169689640000	     -0.00000000000008279659	     -0.00000000000010685049	     31.54278804811503200000	     -2.94752666688646900000	     -8.22557780995506960000	    -31.22932549014792500000	     -2.88648460084004640000	     -0.00000000000000327947	     -0.00000000000000399083	     -6.22963132843154370000	     -0.21929982224389505000	      9.86539262180892070000
      0.35033000000000003000	      1.51225431173063840000	      0.74826774672782415000	     -0.16970039694492003000	     -2.37507519800897970000	     -1.11202079885484850000	     -1.76692293937167940000	     -6.11073446473847870000	      5.51300459374416540000	      5.15099149318546790000	     -3.98788231182425970000	      7.22944701385951040000	     -0.00000000000008286213	     -0.00000000000010812971	     31.56678929933227500000	     -2.96410642325401150000	     -8.40715219971069950000	    -30.81554920210165300000	     -2.88388577910516640000	     -0.00000000000000332289	     -0.00000000000000400446	     -6.24127396443530370000	     -0.22808131247669858000	      9.88449487305400250000
      0.35133000000000003000	      1.51343675212145890000	      0.74803288257906653000	     -0.16970918080009509000	     -2.36489131371404060000	     -1.09883139236075910000	     -1.81610562082934760000	     -6.29639497647933590000	      5.48892733265121800000	      5.19369924620821610000	     -3.85851624361908520000	      7.24214300210308170000	     -0.00000000000008291168	     -0.00000000000010941439	     31.58960635523615000000	     -2.98105160647890030000	     -8.59032054963316230000	    -30.40112196028357900000	     -2.88175512147849040000	     -0.00000000000000336664	     -0.00000000000000401732	     -6.25254096807555810000	     -0.23650739851708255000	      9.90394368648222920000
      0.35233000000000003000	      1.51462064954739310000	      0.74779372983676207000	     -0.16971740981142650000	     -2.35470970078736160000	     -1.08605594393423740000	     -1.86571108957012410000	     -6.48161284487534670000	      5.46493507924244340000	      5.23569322691974290000	     -3.73035984818318860000	      7.25557172200434590000	     -0.00000000000008295391	     -0.00000000000011067870	     31.61125657750038800000	     -2.99835787138448050000	     -8.77492586553608330000	    -29.98609450358428000000	     -2.88006464437949730000	     -0.00000000000000340524	     -0.00000000000000403196	     -6.26344856039404970000	     -0.24457732959981179000	      9.92375235032324280000
      0.35333000000000003000	      1.51580597336424330000	      0.74755033955561534000	     -0.16972504819883419000	     -2.34453101777650820000	     -1.07371063145204900000	     -1.91573139719480710000	     -6.66637001488485130000	      5.44104846001133780000	      5.27698051088507200000	     -3.60344012244457670000	      7.26973849238169210000	     -0.00000000000008297165	     -0.00000000000011196965	     31.63175812502014800000	     -3.01602116726095740000	     -8.96080931572910270000	    -29.57051893161993300000	     -2.87878763660483910000	     -0.00000000000000344609	     -0.00000000000000404709	     -6.27401308621588780000	     -0.25229009398503066000	      9.94393330295869400000
      0.35433000000000003000	      1.51699269225373910000	      0.74730276361760672000	     -0.16973206159323989000	     -2.33435619194946400000	     -1.06181162167065880000	     -1.96615790784405190000	     -6.85064811382074980000	      5.41728849436353330000	      5.31756879609352760000	     -3.47778400192628600000	      7.28464837776013940000	     -0.00000000000008298959	     -0.00000000000011325346	     31.65112994820313500000	     -3.03403772552837170000	     -9.14781044714217550000	    -29.15444873732730000000	     -2.87789870192678570000	     -0.00000000000000348726	     -0.00000000000000406057	     -6.28425098008500700000	     -0.25964445230649180000	      9.96449812692421770000
